<svg xmlns="http://www.w3.org/2000/svg" xmlns:xlink="http://www.w3.org/1999/xlink" width="500" zoomAndPan="magnify" viewBox="0 0 375 374.999991" height="500" preserveAspectRatio="xMidYMid meet" version="1.0"><defs><clipPath id="43e2e2671a"><path d="M 18 74.1875 L 357 74.1875 L 357 300.6875 L 18 300.6875 Z M 18 74.1875 " clip-rule="nonzero"/></clipPath><clipPath id="ea4ad37782"><path d="M 91 149 L 284 149 L 284 231.917969 L 91 231.917969 Z M 91 149 " clip-rule="nonzero"/></clipPath><clipPath id="ddcddf7b90"><path d="M 88.777344 132 L 189 132 L 189 227 L 88.777344 227 Z M 88.777344 132 " clip-rule="nonzero"/></clipPath></defs><g clip-path="url(#43e2e2671a)"><path fill="#0f4189" d="M 311.78125 74.1875 L 63.828125 74.1875 C 52.222656 74.1875 42.726562 83.667969 42.726562 95.257812 L 42.726562 260.128906 C 41.933594 260.652344 41.144531 261.179688 40.351562 261.972656 L 21.625 283.039062 C 18.984375 286.203125 18.195312 290.679688 19.777344 294.367188 C 21.625 298.316406 25.316406 300.6875 29.539062 300.6875 L 346.074219 300.6875 C 350.292969 300.6875 353.988281 298.316406 355.570312 294.367188 C 357.152344 290.679688 356.625 286.203125 353.722656 283.039062 L 334.996094 261.972656 C 334.203125 261.179688 333.414062 260.652344 332.621094 260.128906 L 332.621094 95.257812 C 332.886719 83.667969 323.390625 74.1875 311.78125 74.1875 Z M 53.277344 95.257812 C 53.277344 89.460938 58.027344 84.722656 63.828125 84.722656 L 311.78125 84.722656 C 317.585938 84.722656 322.332031 89.460938 322.332031 95.257812 L 322.332031 258.546875 L 53.277344 258.546875 Z M 346.074219 290.152344 L 29.539062 290.152344 L 48.265625 269.082031 L 327.347656 269.082031 Z M 346.074219 290.152344 " fill-opacity="1" fill-rule="nonzero"/></g><path fill="#0f4189" d="M 301.230469 95.257812 L 74.378906 95.257812 C 68.578125 95.257812 63.828125 99.996094 63.828125 105.792969 L 63.828125 237.476562 C 63.828125 243.273438 68.578125 248.011719 74.378906 248.011719 L 301.230469 248.011719 C 307.035156 248.011719 311.78125 243.273438 311.78125 237.476562 L 311.78125 105.792969 C 311.78125 99.996094 307.035156 95.257812 301.230469 95.257812 Z M 161.691406 160.574219 L 176.726562 145.5625 C 178.835938 143.453125 182.003906 143.453125 184.113281 145.5625 C 186.222656 147.667969 186.222656 150.828125 184.113281 152.933594 L 169.078125 167.945312 C 168.023438 169 166.703125 169.527344 165.382812 169.527344 C 164.066406 169.527344 162.746094 169 161.691406 167.945312 C 159.582031 165.839844 159.582031 162.417969 161.691406 160.574219 Z M 169.078125 195.601562 C 167.757812 195.601562 166.441406 195.074219 165.382812 194.019531 C 163.273438 191.914062 163.273438 188.753906 165.382812 186.648438 L 202.578125 149.511719 C 204.6875 147.402344 207.851562 147.402344 209.964844 149.511719 C 212.074219 151.617188 212.074219 154.777344 209.964844 156.886719 L 172.769531 194.019531 C 171.980469 195.074219 170.394531 195.601562 169.078125 195.601562 Z M 213.921875 182.695312 L 198.882812 197.707031 C 197.828125 198.761719 196.511719 199.289062 195.191406 199.289062 C 193.871094 199.289062 192.554688 198.761719 191.5 197.707031 C 189.386719 195.601562 189.386719 192.441406 191.5 190.332031 L 206.535156 175.320312 C 208.644531 173.214844 211.808594 173.214844 213.921875 175.320312 C 216.03125 177.429688 216.03125 180.851562 213.921875 182.695312 Z M 213.921875 182.695312 " fill-opacity="1" fill-rule="nonzero"/><path fill="#ffffff" d="M 279.3125 225.164062 L 271.496094 153.742188 L 190.324219 153.742188 L 190.324219 153.265625 L 184.566406 153.265625 L 184.566406 153.742188 L 103.398438 153.742188 L 95.582031 225.164062 L 184.566406 225.164062 L 184.566406 224.769531 C 184.566406 226.355469 185.855469 227.644531 187.445312 227.644531 C 189.035156 227.644531 190.324219 226.355469 190.324219 224.769531 L 190.324219 225.164062 L 279.3125 225.164062 " fill-opacity="1" fill-rule="nonzero"/><g clip-path="url(#ea4ad37782)"><path fill="#ff793f" d="M 184.566406 220.535156 C 185.679688 220.535156 186.691406 220.960938 187.445312 221.65625 C 188.203125 220.960938 189.214844 220.535156 190.324219 220.535156 C 190.964844 220.535156 191.566406 220.675781 192.113281 220.929688 L 274.582031 220.929688 L 267.691406 157.976562 L 190.324219 157.976562 C 189.617188 157.976562 188.953125 157.804688 188.367188 157.503906 L 186.527344 157.503906 C 185.941406 157.804688 185.273438 157.976562 184.566406 157.976562 L 107.203125 157.976562 L 100.316406 220.929688 L 182.78125 220.929688 C 183.324219 220.675781 183.929688 220.535156 184.566406 220.535156 Z M 187.445312 231.878906 C 185.289062 231.878906 183.351562 230.917969 182.046875 229.398438 L 95.582031 229.398438 C 94.375 229.398438 93.226562 228.886719 92.421875 227.992188 C 91.617188 227.09375 91.234375 225.898438 91.363281 224.703125 L 99.179688 153.28125 C 99.414062 151.132812 101.234375 149.507812 103.398438 149.507812 L 182.609375 149.507812 C 183.195312 149.203125 183.863281 149.03125 184.566406 149.03125 L 190.324219 149.03125 C 191.03125 149.03125 191.699219 149.203125 192.285156 149.507812 L 271.496094 149.507812 C 273.664062 149.507812 275.480469 151.132812 275.714844 153.28125 L 283.53125 224.703125 C 283.664062 225.898438 283.277344 227.09375 282.472656 227.992188 C 281.667969 228.886719 280.519531 229.398438 279.3125 229.398438 L 192.847656 229.398438 C 191.542969 230.917969 189.605469 231.878906 187.445312 231.878906 " fill-opacity="1" fill-rule="nonzero"/></g><path fill="#ffffff" d="M 187.378906 153.503906 C 187.378906 153.503906 168.378906 129.265625 144.78125 143.632812 C 121.179688 157.996094 101.707031 147.65625 101.707031 147.65625 L 93.890625 219.097656 C 93.890625 219.097656 121.179688 229.441406 144.78125 215.074219 C 168.378906 200.710938 187.378906 224.949219 187.378906 224.949219 L 187.378906 153.503906 " fill-opacity="1" fill-rule="nonzero"/><path fill="#ff793f" d="M 160.070312 209.253906 C 172.433594 209.253906 181.945312 217.347656 186.105469 221.617188 L 186.105469 153.960938 C 184.320312 151.855469 173.925781 140.351562 160.070312 140.351562 C 155.121094 140.351562 150.199219 141.820312 145.445312 144.71875 C 136.929688 149.898438 127.996094 152.527344 118.898438 152.527344 C 111.203125 152.527344 105.464844 150.636719 102.78125 149.535156 L 95.265625 218.226562 C 97.921875 219.09375 106.015625 221.429688 116.039062 221.429688 C 126.558594 221.429688 136.007812 218.925781 144.117188 213.988281 C 149.28125 210.847656 154.648438 209.253906 160.070312 209.253906 Z M 187.378906 226.21875 C 186.992188 226.21875 186.621094 226.046875 186.375 225.734375 C 186.265625 225.59375 175.246094 211.796875 160.070312 211.796875 C 155.121094 211.796875 150.199219 213.261719 145.445312 216.160156 C 136.929688 221.34375 127.035156 223.972656 116.039062 223.972656 C 103.308594 223.972656 93.835938 220.4375 93.441406 220.285156 C 92.898438 220.078125 92.5625 219.535156 92.628906 218.960938 L 100.441406 147.515625 C 100.488281 147.097656 100.738281 146.726562 101.113281 146.53125 C 101.484375 146.332031 101.929688 146.332031 102.304688 146.53125 C 102.367188 146.566406 108.964844 149.988281 118.898438 149.988281 C 127.523438 149.984375 136.007812 147.484375 144.117188 142.546875 C 149.28125 139.40625 154.648438 137.8125 160.070312 137.8125 C 176.5 137.8125 187.902344 152.113281 188.378906 152.722656 C 188.554688 152.945312 188.648438 153.222656 188.648438 153.503906 L 188.648438 224.949219 C 188.648438 225.492188 188.304688 225.972656 187.792969 226.148438 C 187.65625 226.195312 187.515625 226.21875 187.378906 226.21875 " fill-opacity="1" fill-rule="nonzero"/><path fill="#ffffff" d="M 187.378906 154.21875 C 187.378906 154.21875 176.074219 126.613281 146.140625 135.804688 C 116.207031 145.003906 118.632812 143.582031 97.910156 135.535156 L 90.09375 206.265625 C 110.816406 214.308594 116.207031 215.730469 146.140625 206.535156 C 176.074219 197.34375 187.378906 224.949219 187.378906 224.949219 L 187.378906 154.21875 " fill-opacity="1" fill-rule="nonzero"/><g clip-path="url(#ddcddf7b90)"><path fill="#ff793f" d="M 157.84375 203.390625 C 173.246094 203.390625 182.160156 213.777344 186.105469 219.96875 L 186.105469 154.484375 C 185.136719 152.347656 176.78125 135.203125 157.84375 135.203125 C 154.253906 135.203125 150.445312 135.8125 146.515625 137.023438 C 131.707031 141.570312 125.109375 143.421875 119.417969 143.421875 C 114.21875 143.421875 110.265625 141.835938 103.085938 138.957031 C 101.832031 138.453125 100.476562 137.910156 98.992188 137.324219 L 91.464844 205.433594 C 101.667969 209.382812 107.996094 211.609375 115.796875 211.609375 C 122.71875 211.609375 130.84375 209.90625 145.765625 205.320312 C 149.9375 204.039062 154 203.390625 157.84375 203.390625 Z M 187.375 226.21875 C 186.867188 226.21875 186.398438 225.914062 186.199219 225.429688 C 186.117188 225.234375 177.941406 205.933594 157.84375 205.933594 C 154.253906 205.933594 150.445312 206.542969 146.515625 207.75 C 131.324219 212.414062 122.996094 214.152344 115.796875 214.152344 C 107.328125 214.152344 100.335938 211.605469 89.632812 207.449219 C 89.097656 207.242188 88.765625 206.699219 88.828125 206.125 L 96.644531 135.394531 C 96.6875 135.003906 96.910156 134.652344 97.25 134.449219 C 97.585938 134.246094 98.003906 134.210938 98.371094 134.351562 C 100.480469 135.167969 102.347656 135.921875 104.035156 136.597656 C 110.921875 139.359375 114.710938 140.878906 119.417969 140.878906 C 124.738281 140.878906 131.53125 138.964844 145.765625 134.59375 C 149.9375 133.3125 154 132.660156 157.84375 132.660156 C 179.671875 132.660156 188.46875 153.527344 188.554688 153.738281 C 188.617188 153.890625 188.648438 154.054688 188.648438 154.21875 L 188.648438 224.949219 C 188.648438 225.554688 188.21875 226.074219 187.621094 226.195312 C 187.539062 226.210938 187.460938 226.21875 187.375 226.21875 " fill-opacity="1" fill-rule="nonzero"/></g><path fill="#ffffff" d="M 150.769531 123.410156 C 128.167969 125.917969 135.824219 132.328125 112.71875 123.804688 L 104.902344 194.996094 C 128.007812 203.519531 128.167969 197.109375 150.769531 194.605469 C 173.375 192.097656 187.378906 224.949219 187.378906 224.949219 L 187.378906 153.753906 C 187.378906 153.753906 173.375 120.902344 150.769531 123.410156 " fill-opacity="1" fill-rule="nonzero"/><path fill="#ff793f" d="M 153.226562 193.195312 C 169.816406 193.195312 181.332031 210.640625 186.105469 219.480469 L 186.105469 154.019531 C 184.859375 151.246094 172.34375 124.542969 153.226562 124.542969 C 152.460938 124.542969 151.683594 124.585938 150.910156 124.671875 C 142.992188 125.550781 138.820312 126.925781 135.773438 127.933594 C 133.359375 128.730469 131.449219 129.355469 128.90625 129.355469 C 125.617188 129.355469 121.441406 128.316406 113.804688 125.554688 L 106.277344 194.148438 C 113.757812 196.851562 118.964844 198.011719 123.546875 198.011719 C 127.265625 198.011719 130.453125 197.246094 134.488281 196.285156 C 138.5 195.328125 143.496094 194.132812 150.632812 193.34375 C 151.492188 193.246094 152.367188 193.195312 153.226562 193.195312 Z M 187.375 226.21875 C 186.875 226.21875 186.410156 225.921875 186.203125 225.445312 C 186.078125 225.148438 173.292969 195.738281 153.226562 195.738281 C 152.460938 195.738281 151.683594 195.78125 150.910156 195.867188 C 143.933594 196.640625 139.027344 197.8125 135.078125 198.757812 C 130.882812 199.757812 127.566406 200.550781 123.546875 200.550781 C 118.453125 200.550781 112.746094 199.246094 104.460938 196.191406 C 103.914062 195.988281 103.574219 195.4375 103.636719 194.859375 L 111.453125 123.664062 C 111.496094 123.277344 111.714844 122.929688 112.050781 122.722656 C 112.382812 122.515625 112.792969 122.476562 113.160156 122.609375 C 121.359375 125.636719 125.773438 126.816406 128.90625 126.816406 C 131.039062 126.8125 132.691406 126.273438 134.976562 125.515625 C 138.128906 124.480469 142.445312 123.054688 150.632812 122.148438 C 151.492188 122.050781 152.367188 122.003906 153.226562 122.003906 C 174.972656 122.003906 188.003906 151.980469 188.546875 153.257812 C 188.617188 153.414062 188.648438 153.582031 188.648438 153.753906 L 188.648438 224.949219 C 188.648438 225.550781 188.226562 226.070312 187.628906 226.191406 C 187.546875 226.210938 187.460938 226.21875 187.375 226.21875 " fill-opacity="1" fill-rule="nonzero"/><path fill="#ffffff" d="M 187.378906 153.503906 C 187.378906 153.503906 206.371094 129.265625 229.976562 143.632812 C 253.574219 157.996094 273.046875 147.65625 273.046875 147.65625 L 280.863281 219.097656 C 280.863281 219.097656 253.574219 229.441406 229.976562 215.074219 C 206.371094 200.710938 187.378906 224.949219 187.378906 224.949219 L 187.378906 153.503906 " fill-opacity="1" fill-rule="nonzero"/><path fill="#ff793f" d="M 188.648438 153.960938 L 188.648438 221.617188 C 192.808594 217.347656 202.320312 209.253906 214.683594 209.253906 C 220.105469 209.253906 225.472656 210.847656 230.640625 213.988281 C 238.75 218.925781 248.195312 221.429688 258.71875 221.429688 C 268.757812 221.425781 276.839844 219.09375 279.484375 218.226562 L 271.972656 149.535156 C 269.289062 150.636719 263.546875 152.527344 255.855469 152.527344 C 246.757812 152.527344 237.828125 149.902344 229.3125 144.71875 C 224.554688 141.820312 219.632812 140.351562 214.683594 140.351562 C 200.828125 140.351562 190.433594 151.855469 188.648438 153.960938 Z M 187.378906 226.21875 C 187.238281 226.21875 187.097656 226.195312 186.960938 226.148438 C 186.449219 225.972656 186.105469 225.492188 186.105469 224.949219 L 186.105469 153.503906 C 186.105469 153.222656 186.199219 152.945312 186.375 152.722656 C 186.851562 152.113281 198.25 137.8125 214.683594 137.8125 C 220.105469 137.8125 225.472656 139.40625 230.640625 142.546875 C 238.746094 147.484375 247.230469 149.988281 255.855469 149.988281 C 265.832031 149.988281 272.382812 146.570312 272.449219 146.53125 C 272.824219 146.332031 273.269531 146.332031 273.644531 146.53125 C 274.015625 146.726562 274.269531 147.097656 274.3125 147.515625 L 282.128906 218.960938 C 282.191406 219.535156 281.855469 220.078125 281.316406 220.285156 C 280.917969 220.4375 271.445312 223.972656 258.71875 223.972656 C 247.722656 223.972656 237.828125 221.34375 229.3125 216.160156 C 224.554688 213.261719 219.632812 211.796875 214.683594 211.796875 C 199.476562 211.796875 188.488281 225.59375 188.378906 225.734375 C 188.132812 226.046875 187.761719 226.21875 187.378906 226.21875 " fill-opacity="1" fill-rule="nonzero"/><path fill="#ffffff" d="M 187.378906 154.21875 C 187.378906 154.21875 198.683594 126.613281 228.617188 135.804688 C 258.546875 145.003906 256.121094 143.582031 276.84375 135.535156 L 284.660156 206.265625 C 263.9375 214.308594 258.546875 215.730469 228.617188 206.535156 C 198.683594 197.34375 187.378906 224.949219 187.378906 224.949219 L 187.378906 154.21875 " fill-opacity="1" fill-rule="nonzero"/><path fill="#ff793f" d="M 188.648438 154.484375 L 188.648438 219.96875 C 192.59375 213.777344 201.507812 203.390625 216.914062 203.390625 C 220.753906 203.390625 224.816406 204.039062 228.988281 205.320312 C 243.914062 209.90625 252.035156 211.609375 258.957031 211.609375 C 266.757812 211.609375 273.085938 209.382812 283.289062 205.433594 L 275.761719 137.324219 C 274.28125 137.90625 272.925781 138.453125 271.667969 138.957031 C 264.488281 141.835938 260.535156 143.421875 255.339844 143.421875 C 249.644531 143.421875 243.050781 141.570312 228.238281 137.023438 C 224.3125 135.8125 220.5 135.203125 216.914062 135.203125 C 197.933594 135.203125 189.613281 152.347656 188.648438 154.484375 Z M 187.378906 226.21875 C 187.296875 226.21875 187.214844 226.210938 187.128906 226.195312 C 186.535156 226.078125 186.105469 225.554688 186.105469 224.949219 L 186.105469 154.21875 C 186.105469 154.054688 186.136719 153.890625 186.199219 153.738281 C 186.285156 153.527344 195.085938 132.660156 216.914062 132.660156 C 220.753906 132.660156 224.816406 133.3125 228.988281 134.59375 C 243.222656 138.964844 250.019531 140.878906 255.339844 140.878906 C 260.042969 140.878906 263.835938 139.359375 270.71875 136.597656 C 272.40625 135.921875 274.273438 135.167969 276.382812 134.351562 C 276.753906 134.210938 277.164062 134.246094 277.503906 134.449219 C 277.84375 134.652344 278.066406 135.003906 278.109375 135.394531 L 285.925781 206.125 C 285.988281 206.699219 285.660156 207.242188 285.121094 207.449219 C 274.417969 211.605469 267.429688 214.152344 258.957031 214.152344 C 251.757812 214.152344 243.433594 212.417969 228.238281 207.75 C 224.3125 206.542969 220.5 205.933594 216.914062 205.933594 C 196.769531 205.933594 188.636719 225.234375 188.554688 225.429688 C 188.359375 225.914062 187.886719 226.21875 187.378906 226.21875 " fill-opacity="1" fill-rule="nonzero"/><path fill="#ffffff" d="M 223.984375 123.410156 C 246.585938 125.917969 238.929688 132.328125 262.035156 123.804688 L 269.851562 194.996094 C 246.746094 203.519531 246.585938 197.109375 223.984375 194.605469 C 201.378906 192.097656 187.378906 224.949219 187.378906 224.949219 L 187.378906 153.753906 C 187.378906 153.753906 201.378906 120.902344 223.984375 123.410156 " fill-opacity="1" fill-rule="nonzero"/><path fill="#ff793f" d="M 188.648438 154.019531 L 188.648438 219.480469 C 193.421875 210.640625 204.9375 193.195312 221.523438 193.195312 C 222.386719 193.195312 223.261719 193.246094 224.125 193.34375 C 231.257812 194.132812 236.253906 195.328125 240.265625 196.285156 C 244.300781 197.246094 247.492188 198.011719 251.210938 198.011719 C 255.792969 198.011719 260.996094 196.851562 268.476562 194.148438 L 260.945312 125.554688 C 253.316406 128.316406 249.136719 129.355469 245.847656 129.355469 C 243.304688 129.355469 241.398438 128.730469 238.980469 127.933594 C 235.933594 126.925781 231.761719 125.550781 223.839844 124.671875 C 223.074219 124.585938 222.292969 124.542969 221.523438 124.542969 C 202.410156 124.542969 189.898438 151.246094 188.648438 154.019531 Z M 187.378906 226.21875 C 187.292969 226.21875 187.207031 226.210938 187.121094 226.191406 C 186.53125 226.070312 186.105469 225.550781 186.105469 224.949219 L 186.105469 153.753906 C 186.105469 153.582031 186.140625 153.414062 186.203125 153.257812 C 186.75 151.980469 199.78125 122.003906 221.523438 122.003906 C 222.386719 122.003906 223.261719 122.050781 224.125 122.148438 C 232.308594 123.054688 236.628906 124.480469 239.78125 125.515625 C 242.0625 126.273438 243.714844 126.816406 245.847656 126.816406 C 248.980469 126.816406 253.394531 125.636719 261.59375 122.609375 C 261.960938 122.476562 262.371094 122.515625 262.707031 122.722656 C 263.039062 122.929688 263.257812 123.277344 263.300781 123.664062 L 271.117188 194.859375 C 271.179688 195.4375 270.839844 195.988281 270.292969 196.191406 C 262.007812 199.246094 256.300781 200.550781 251.210938 200.550781 C 247.191406 200.550781 243.871094 199.757812 239.671875 198.757812 C 235.726562 197.8125 230.820312 196.640625 223.839844 195.867188 C 223.074219 195.78125 222.292969 195.738281 221.523438 195.738281 C 201.460938 195.738281 188.675781 225.148438 188.546875 225.445312 C 188.347656 225.921875 187.878906 226.21875 187.378906 226.21875 " fill-opacity="1" fill-rule="nonzero"/></svg>