<svg xmlns="http://www.w3.org/2000/svg" xmlns:xlink="http://www.w3.org/1999/xlink" width="500" zoomAndPan="magnify" viewBox="0 0 375 112.499997" height="150" preserveAspectRatio="xMidYMid meet" version="1.0"><defs><g/><clipPath id="7740e120dd"><path d="M 12.03125 11.199219 L 144.9375 11.199219 L 144.9375 100.054688 L 12.03125 100.054688 Z M 12.03125 11.199219 " clip-rule="nonzero"/></clipPath><clipPath id="9b70046292"><path d="M 44 41 L 113 41 L 113 70.539062 L 44 70.539062 Z M 44 41 " clip-rule="nonzero"/></clipPath><clipPath id="c42b386f60"><path d="M 43.882812 35 L 80 35 L 80 69 L 43.882812 69 Z M 43.882812 35 " clip-rule="nonzero"/></clipPath><clipPath id="a22c0adf1d"><path d="M 78 35 L 113.324219 35 L 113.324219 69 L 78 69 Z M 78 35 " clip-rule="nonzero"/></clipPath></defs><g clip-path="url(#7740e120dd)"><path fill="#ffffff" d="M 126.925781 11.199219 L 30.144531 11.199219 C 25.617188 11.199219 21.910156 14.917969 21.910156 19.464844 L 21.910156 84.144531 C 21.601562 84.351562 21.292969 84.558594 20.984375 84.867188 L 13.671875 93.132812 C 12.644531 94.371094 12.332031 96.128906 12.953125 97.574219 C 13.671875 99.125 15.113281 100.054688 16.761719 100.054688 L 140.3125 100.054688 C 141.957031 100.054688 143.398438 99.125 144.015625 97.574219 C 144.636719 96.128906 144.429688 94.371094 143.296875 93.132812 L 135.988281 84.867188 C 135.679688 84.558594 135.367188 84.351562 135.058594 84.144531 L 135.058594 19.464844 C 135.164062 14.917969 131.457031 11.199219 126.925781 11.199219 Z M 26.027344 19.464844 C 26.027344 17.191406 27.878906 15.332031 30.144531 15.332031 L 126.925781 15.332031 C 129.191406 15.332031 131.042969 17.191406 131.042969 19.464844 L 131.042969 83.523438 L 26.027344 83.523438 Z M 140.3125 95.921875 L 16.761719 95.921875 L 24.070312 87.65625 L 133 87.65625 Z M 140.3125 95.921875 " fill-opacity="1" fill-rule="nonzero"/></g><path fill="#ffffff" d="M 122.808594 19.464844 L 34.265625 19.464844 C 32 19.464844 30.144531 21.324219 30.144531 23.597656 L 30.144531 75.257812 C 30.144531 77.53125 32 79.390625 34.265625 79.390625 L 122.808594 79.390625 C 125.074219 79.390625 126.925781 77.53125 126.925781 75.257812 L 126.925781 23.597656 C 126.925781 21.324219 125.074219 19.464844 122.808594 19.464844 Z M 68.34375 45.089844 L 74.210938 39.199219 C 75.035156 38.375 76.269531 38.375 77.09375 39.199219 C 77.917969 40.027344 77.917969 41.265625 77.09375 42.09375 L 71.226562 47.980469 C 70.8125 48.394531 70.300781 48.601562 69.785156 48.601562 C 69.269531 48.601562 68.753906 48.394531 68.34375 47.980469 C 67.519531 47.15625 67.519531 45.8125 68.34375 45.089844 Z M 71.226562 58.832031 C 70.710938 58.832031 70.195312 58.625 69.785156 58.210938 C 68.960938 57.382812 68.960938 56.144531 69.785156 55.316406 L 84.300781 40.75 C 85.125 39.921875 86.359375 39.921875 87.183594 40.75 C 88.007812 41.578125 88.007812 42.816406 87.183594 43.644531 L 72.667969 58.210938 C 72.359375 58.625 71.742188 58.832031 71.226562 58.832031 Z M 88.730469 53.769531 L 82.859375 59.65625 C 82.449219 60.070312 81.933594 60.277344 81.417969 60.277344 C 80.902344 60.277344 80.390625 60.070312 79.976562 59.65625 C 79.152344 58.832031 79.152344 57.589844 79.976562 56.765625 L 85.847656 50.875 C 86.667969 50.046875 87.90625 50.046875 88.730469 50.875 C 89.550781 51.703125 89.550781 53.042969 88.730469 53.769531 Z M 88.730469 53.769531 " fill-opacity="1" fill-rule="nonzero"/><path fill="#ffffff" d="M 110.957031 68.175781 L 108.207031 43.191406 L 79.632812 43.191406 L 79.632812 43.027344 L 77.605469 43.027344 L 77.605469 43.191406 L 49.035156 43.191406 L 46.285156 68.175781 L 77.605469 68.175781 L 77.605469 68.039062 C 77.605469 68.59375 78.058594 69.042969 78.621094 69.042969 C 79.179688 69.042969 79.632812 68.59375 79.632812 68.039062 L 79.632812 68.175781 L 110.957031 68.175781 " fill-opacity="1" fill-rule="nonzero"/><g clip-path="url(#9b70046292)"><path fill="#ff793f" d="M 77.605469 66.554688 C 77.996094 66.554688 78.355469 66.707031 78.621094 66.949219 C 78.886719 66.707031 79.242188 66.554688 79.632812 66.554688 C 79.859375 66.554688 80.070312 66.605469 80.261719 66.695312 L 109.289062 66.695312 L 106.867188 44.675781 L 79.632812 44.675781 C 79.382812 44.675781 79.148438 44.613281 78.945312 44.507812 L 78.296875 44.507812 C 78.089844 44.613281 77.855469 44.675781 77.605469 44.675781 L 50.375 44.675781 L 47.949219 66.695312 L 76.976562 66.695312 C 77.167969 66.605469 77.382812 66.554688 77.605469 66.554688 Z M 78.621094 70.523438 C 77.859375 70.523438 77.179688 70.1875 76.71875 69.65625 L 46.285156 69.65625 C 45.859375 69.65625 45.453125 69.480469 45.171875 69.164062 C 44.886719 68.851562 44.753906 68.433594 44.796875 68.015625 L 47.550781 43.03125 C 47.632812 42.28125 48.273438 41.710938 49.035156 41.710938 L 76.917969 41.710938 C 77.125 41.605469 77.359375 41.542969 77.605469 41.542969 L 79.632812 41.542969 C 79.882812 41.542969 80.117188 41.605469 80.324219 41.710938 L 108.207031 41.710938 C 108.96875 41.710938 109.605469 42.28125 109.691406 43.03125 L 112.441406 68.015625 C 112.488281 68.433594 112.351562 68.851562 112.066406 69.164062 C 111.785156 69.480469 111.378906 69.65625 110.957031 69.65625 L 80.519531 69.65625 C 80.0625 70.1875 79.378906 70.523438 78.621094 70.523438 " fill-opacity="1" fill-rule="nonzero"/></g><path fill="#ffffff" d="M 78.59375 43.109375 C 78.59375 43.109375 71.910156 34.632812 63.601562 39.65625 C 55.292969 44.679688 48.4375 41.0625 48.4375 41.0625 L 45.6875 66.054688 C 45.6875 66.054688 55.292969 69.671875 63.601562 64.648438 C 71.910156 59.621094 78.59375 68.101562 78.59375 68.101562 L 78.59375 43.109375 " fill-opacity="1" fill-rule="nonzero"/><path fill="#ff793f" d="M 68.984375 62.609375 C 73.335938 62.609375 76.683594 65.441406 78.148438 66.933594 L 78.148438 43.269531 C 77.519531 42.535156 73.859375 38.507812 68.984375 38.507812 C 67.242188 38.507812 65.507812 39.023438 63.835938 40.035156 C 60.835938 41.847656 57.695312 42.769531 54.492188 42.769531 C 51.78125 42.769531 49.761719 42.105469 48.816406 41.722656 L 46.171875 65.75 C 47.105469 66.050781 49.957031 66.871094 53.484375 66.871094 C 57.1875 66.871094 60.511719 65.992188 63.367188 64.265625 C 65.183594 63.167969 67.074219 62.609375 68.984375 62.609375 Z M 78.59375 68.542969 C 78.460938 68.542969 78.328125 68.484375 78.242188 68.375 C 78.203125 68.324219 74.324219 63.5 68.984375 63.5 C 67.242188 63.5 65.507812 64.011719 63.835938 65.027344 C 60.835938 66.839844 57.355469 67.757812 53.484375 67.757812 C 49.003906 67.757812 45.667969 66.523438 45.53125 66.46875 C 45.339844 66.398438 45.222656 66.207031 45.242188 66.003906 L 47.992188 41.015625 C 48.011719 40.867188 48.097656 40.738281 48.230469 40.671875 C 48.359375 40.601562 48.519531 40.601562 48.648438 40.671875 C 48.671875 40.683594 50.996094 41.878906 54.492188 41.878906 C 57.527344 41.878906 60.511719 41.003906 63.367188 39.277344 C 65.183594 38.179688 67.074219 37.621094 68.984375 37.621094 C 74.765625 37.621094 78.78125 42.625 78.949219 42.835938 C 79.007812 42.914062 79.042969 43.011719 79.042969 43.109375 L 79.042969 68.101562 C 79.042969 68.289062 78.921875 68.457031 78.742188 68.519531 C 78.691406 68.535156 78.644531 68.542969 78.59375 68.542969 " fill-opacity="1" fill-rule="nonzero"/><path fill="#ffffff" d="M 78.59375 43.359375 C 78.59375 43.359375 74.617188 33.703125 64.078125 36.917969 C 53.542969 40.136719 54.398438 39.636719 47.101562 36.824219 L 44.351562 61.566406 C 51.644531 64.378906 53.542969 64.875 64.078125 61.660156 C 74.617188 58.445312 78.59375 68.101562 78.59375 68.101562 L 78.59375 43.359375 " fill-opacity="1" fill-rule="nonzero"/><g clip-path="url(#c42b386f60)"><path fill="#ff793f" d="M 68.199219 60.558594 C 73.621094 60.558594 76.757812 64.191406 78.148438 66.359375 L 78.148438 43.453125 C 77.808594 42.707031 74.863281 36.707031 68.199219 36.707031 C 66.9375 36.707031 65.59375 36.921875 64.210938 37.34375 C 59 38.933594 56.675781 39.582031 54.675781 39.582031 C 52.84375 39.582031 51.453125 39.027344 48.925781 38.019531 C 48.484375 37.84375 48.003906 37.65625 47.484375 37.449219 L 44.835938 61.273438 C 48.425781 62.65625 50.652344 63.433594 53.398438 63.433594 C 55.835938 63.433594 58.695312 62.839844 63.949219 61.234375 C 65.417969 60.785156 66.847656 60.558594 68.199219 60.558594 Z M 78.59375 68.542969 C 78.417969 68.542969 78.25 68.4375 78.179688 68.269531 C 78.152344 68.199219 75.273438 61.449219 68.199219 61.449219 C 66.9375 61.449219 65.59375 61.664062 64.210938 62.085938 C 58.863281 63.714844 55.933594 64.324219 53.398438 64.324219 C 50.417969 64.324219 47.957031 63.433594 44.1875 61.980469 C 44 61.90625 43.882812 61.71875 43.90625 61.515625 L 46.65625 36.777344 C 46.671875 36.636719 46.75 36.515625 46.871094 36.445312 C 46.988281 36.375 47.136719 36.359375 47.265625 36.410156 C 48.007812 36.695312 48.664062 36.957031 49.257812 37.195312 C 51.683594 38.164062 53.015625 38.695312 54.675781 38.695312 C 56.546875 38.695312 58.9375 38.023438 63.949219 36.496094 C 65.417969 36.046875 66.847656 35.820312 68.199219 35.820312 C 75.882812 35.820312 78.980469 43.117188 79.011719 43.191406 C 79.03125 43.246094 79.042969 43.300781 79.042969 43.359375 L 79.042969 68.101562 C 79.042969 68.3125 78.890625 68.496094 78.679688 68.535156 C 78.652344 68.542969 78.625 68.542969 78.59375 68.542969 " fill-opacity="1" fill-rule="nonzero"/></g><path fill="#ffffff" d="M 65.710938 32.582031 C 57.753906 33.460938 60.449219 35.703125 52.316406 32.71875 L 49.5625 57.625 C 57.699219 60.605469 57.753906 58.363281 65.710938 57.488281 C 73.667969 56.609375 78.59375 68.101562 78.59375 68.101562 L 78.59375 43.195312 C 78.59375 43.195312 73.667969 31.707031 65.710938 32.582031 " fill-opacity="1" fill-rule="nonzero"/><path fill="#ff793f" d="M 66.574219 56.992188 C 72.414062 56.992188 76.46875 63.09375 78.148438 66.1875 L 78.148438 43.289062 C 77.707031 42.320312 73.304688 32.980469 66.574219 32.980469 C 66.304688 32.980469 66.03125 32.996094 65.757812 33.023438 C 62.972656 33.332031 61.503906 33.8125 60.429688 34.164062 C 59.582031 34.445312 58.910156 34.664062 58.015625 34.664062 C 56.855469 34.664062 55.386719 34.296875 52.699219 33.332031 L 50.046875 57.328125 C 52.683594 58.273438 54.511719 58.679688 56.125 58.679688 C 57.433594 58.679688 58.558594 58.410156 59.980469 58.074219 C 61.390625 57.738281 63.148438 57.320312 65.660156 57.042969 C 65.964844 57.011719 66.273438 56.992188 66.574219 56.992188 Z M 78.59375 68.542969 C 78.417969 68.542969 78.253906 68.441406 78.183594 68.273438 C 78.136719 68.171875 73.636719 57.882812 66.574219 57.882812 C 66.304688 57.882812 66.03125 57.898438 65.757812 57.929688 C 63.304688 58.199219 61.574219 58.609375 60.1875 58.9375 C 58.710938 59.289062 57.542969 59.566406 56.125 59.566406 C 54.335938 59.566406 52.324219 59.109375 49.410156 58.042969 C 49.214844 57.96875 49.097656 57.777344 49.117188 57.574219 L 51.871094 32.671875 C 51.886719 32.535156 51.960938 32.414062 52.078125 32.34375 C 52.195312 32.269531 52.339844 32.257812 52.472656 32.304688 C 55.355469 33.363281 56.910156 33.773438 58.015625 33.773438 C 58.765625 33.773438 59.34375 33.582031 60.148438 33.320312 C 61.257812 32.957031 62.777344 32.457031 65.660156 32.140625 C 65.964844 32.109375 66.273438 32.089844 66.574219 32.089844 C 74.230469 32.089844 78.816406 42.578125 79.007812 43.023438 C 79.03125 43.078125 79.042969 43.136719 79.042969 43.195312 L 79.042969 68.101562 C 79.042969 68.3125 78.894531 68.492188 78.683594 68.535156 C 78.65625 68.542969 78.625 68.542969 78.59375 68.542969 " fill-opacity="1" fill-rule="nonzero"/><path fill="#ffffff" d="M 78.59375 43.109375 C 78.59375 43.109375 85.28125 34.632812 93.589844 39.65625 C 101.898438 44.679688 108.75 41.0625 108.75 41.0625 L 111.503906 66.054688 C 111.503906 66.054688 101.898438 69.671875 93.589844 64.648438 C 85.28125 59.621094 78.59375 68.101562 78.59375 68.101562 L 78.59375 43.109375 " fill-opacity="1" fill-rule="nonzero"/><path fill="#ff793f" d="M 79.042969 43.269531 L 79.042969 66.933594 C 80.507812 65.441406 83.855469 62.609375 88.207031 62.609375 C 90.117188 62.609375 92.003906 63.167969 93.824219 64.265625 C 96.679688 65.996094 100.003906 66.871094 103.707031 66.871094 C 107.242188 66.867188 110.085938 66.050781 111.019531 65.75 L 108.375 41.722656 C 107.429688 42.105469 105.40625 42.769531 102.699219 42.769531 C 99.496094 42.769531 96.351562 41.847656 93.355469 40.035156 C 91.679688 39.023438 89.949219 38.507812 88.207031 38.507812 C 83.328125 38.507812 79.671875 42.535156 79.042969 43.269531 Z M 78.59375 68.542969 C 78.546875 68.542969 78.496094 68.535156 78.449219 68.519531 C 78.269531 68.460938 78.148438 68.289062 78.148438 68.101562 L 78.148438 43.109375 C 78.148438 43.011719 78.179688 42.914062 78.242188 42.835938 C 78.410156 42.625 82.421875 37.621094 88.207031 37.621094 C 90.117188 37.621094 92.003906 38.179688 93.824219 39.277344 C 96.675781 41.003906 99.664062 41.878906 102.699219 41.878906 C 106.210938 41.878906 108.519531 40.683594 108.539062 40.671875 C 108.671875 40.601562 108.828125 40.601562 108.960938 40.671875 C 109.09375 40.738281 109.179688 40.867188 109.195312 41.015625 L 111.949219 66.003906 C 111.96875 66.207031 111.851562 66.398438 111.660156 66.46875 C 111.519531 66.523438 108.1875 67.757812 103.707031 67.757812 C 99.835938 67.757812 96.351562 66.839844 93.355469 65.027344 C 91.679688 64.011719 89.949219 63.5 88.207031 63.5 C 82.855469 63.5 78.988281 68.324219 78.949219 68.375 C 78.863281 68.484375 78.730469 68.542969 78.59375 68.542969 " fill-opacity="1" fill-rule="nonzero"/><path fill="#ffffff" d="M 78.59375 43.359375 C 78.59375 43.359375 82.574219 33.703125 93.113281 36.917969 C 103.648438 40.136719 102.792969 39.636719 110.085938 36.824219 L 112.839844 61.566406 C 105.542969 64.378906 103.648438 64.875 93.113281 61.660156 C 82.574219 58.445312 78.59375 68.101562 78.59375 68.101562 L 78.59375 43.359375 " fill-opacity="1" fill-rule="nonzero"/><g clip-path="url(#a22c0adf1d)"><path fill="#ff793f" d="M 79.042969 43.453125 L 79.042969 66.359375 C 80.429688 64.191406 83.570312 60.558594 88.992188 60.558594 C 90.34375 60.558594 91.773438 60.785156 93.242188 61.234375 C 98.496094 62.839844 101.355469 63.433594 103.792969 63.433594 C 106.539062 63.433594 108.765625 62.65625 112.355469 61.273438 L 109.707031 37.449219 C 109.183594 37.652344 108.707031 37.84375 108.265625 38.019531 C 105.738281 39.027344 104.347656 39.582031 102.515625 39.582031 C 100.511719 39.582031 98.191406 38.933594 92.980469 37.34375 C 91.597656 36.921875 90.253906 36.707031 88.992188 36.707031 C 82.3125 36.707031 79.382812 42.707031 79.042969 43.453125 Z M 78.59375 68.542969 C 78.566406 68.542969 78.539062 68.542969 78.507812 68.535156 C 78.296875 68.496094 78.148438 68.3125 78.148438 68.101562 L 78.148438 43.359375 C 78.148438 43.300781 78.15625 43.246094 78.179688 43.191406 C 78.210938 43.117188 81.308594 35.820312 88.992188 35.820312 C 90.34375 35.820312 91.773438 36.046875 93.242188 36.496094 C 98.253906 38.023438 100.644531 38.695312 102.515625 38.695312 C 104.171875 38.695312 105.507812 38.160156 107.929688 37.195312 C 108.527344 36.957031 109.183594 36.695312 109.925781 36.410156 C 110.054688 36.359375 110.199219 36.375 110.320312 36.445312 C 110.4375 36.515625 110.519531 36.636719 110.535156 36.777344 L 113.285156 61.515625 C 113.304688 61.71875 113.191406 61.90625 113 61.980469 C 109.234375 63.433594 106.773438 64.324219 103.792969 64.324219 C 101.257812 64.324219 98.328125 63.71875 92.980469 62.085938 C 91.597656 61.664062 90.253906 61.449219 88.992188 61.449219 C 81.902344 61.449219 79.039062 68.199219 79.011719 68.269531 C 78.941406 68.4375 78.773438 68.542969 78.59375 68.542969 " fill-opacity="1" fill-rule="nonzero"/></g><path fill="#ffffff" d="M 91.480469 32.582031 C 99.4375 33.460938 96.742188 35.703125 104.875 32.71875 L 107.625 57.625 C 99.492188 60.605469 99.4375 58.363281 91.480469 57.488281 C 83.523438 56.609375 78.59375 68.101562 78.59375 68.101562 L 78.59375 43.195312 C 78.59375 43.195312 83.523438 31.707031 91.480469 32.582031 " fill-opacity="1" fill-rule="nonzero"/><path fill="#ff793f" d="M 79.042969 43.289062 L 79.042969 66.1875 C 80.722656 63.09375 84.777344 56.992188 90.613281 56.992188 C 90.917969 56.992188 91.226562 57.011719 91.53125 57.042969 C 94.042969 57.320312 95.800781 57.738281 97.210938 58.074219 C 98.632812 58.410156 99.753906 58.679688 101.0625 58.679688 C 102.675781 58.679688 104.507812 58.273438 107.144531 57.328125 L 104.492188 33.332031 C 101.804688 34.296875 100.335938 34.664062 99.175781 34.664062 C 98.28125 34.664062 97.609375 34.445312 96.757812 34.164062 C 95.6875 33.8125 94.21875 33.332031 91.429688 33.023438 C 91.160156 32.996094 90.886719 32.980469 90.613281 32.980469 C 83.886719 32.980469 79.480469 42.320312 79.042969 43.289062 Z M 78.59375 68.542969 C 78.566406 68.542969 78.535156 68.542969 78.503906 68.535156 C 78.296875 68.492188 78.148438 68.3125 78.148438 68.101562 L 78.148438 43.195312 C 78.148438 43.136719 78.160156 43.078125 78.183594 43.023438 C 78.375 42.578125 82.960938 32.089844 90.613281 32.089844 C 90.917969 32.089844 91.226562 32.109375 91.53125 32.140625 C 94.410156 32.457031 95.929688 32.957031 97.039062 33.320312 C 97.84375 33.582031 98.425781 33.773438 99.175781 33.773438 C 100.28125 33.773438 101.832031 33.363281 104.71875 32.304688 C 104.847656 32.257812 104.992188 32.269531 105.109375 32.34375 C 105.226562 32.414062 105.304688 32.535156 105.320312 32.671875 L 108.070312 57.574219 C 108.09375 57.777344 107.976562 57.96875 107.78125 58.042969 C 104.863281 59.109375 102.855469 59.566406 101.0625 59.566406 C 99.648438 59.566406 98.480469 59.289062 97.003906 58.9375 C 95.613281 58.609375 93.886719 58.199219 91.429688 57.929688 C 91.160156 57.898438 90.886719 57.882812 90.613281 57.882812 C 83.554688 57.882812 79.050781 68.171875 79.007812 68.273438 C 78.9375 68.441406 78.773438 68.542969 78.59375 68.542969 " fill-opacity="1" fill-rule="nonzero"/><g fill="#ffffff" fill-opacity="1"><g transform="translate(172.798981, 51.868131)"><g><path d="M 18.84375 -28.1875 C 20.59375 -28.1875 22.148438 -27.78125 23.515625 -26.96875 C 24.878906 -26.164062 25.941406 -25.0625 26.703125 -23.65625 C 27.472656 -22.25 27.859375 -20.671875 27.859375 -18.921875 L 27.859375 -18.390625 C 27.859375 -16.640625 27.472656 -15.054688 26.703125 -13.640625 C 25.941406 -12.222656 24.878906 -11.109375 23.515625 -10.296875 C 22.148438 -9.492188 20.59375 -9.09375 18.84375 -9.09375 L 12.078125 -9.09375 L 12.078125 0 L 3.03125 0 L 3.03125 -28.1875 Z M 12.078125 -15.6875 L 15.8125 -15.6875 C 16.769531 -15.6875 17.488281 -15.929688 17.96875 -16.421875 C 18.445312 -16.921875 18.6875 -17.59375 18.6875 -18.4375 L 18.6875 -18.765625 C 18.6875 -19.640625 18.445312 -20.316406 17.96875 -20.796875 C 17.488281 -21.273438 16.769531 -21.515625 15.8125 -21.515625 L 12.078125 -21.515625 Z M 12.078125 -15.6875 "/></g></g></g><g fill="#ffffff" fill-opacity="1"><g transform="translate(202.376173, 51.868131)"><g><path d="M 10.609375 -19.375 C 11.484375 -20.25 12.503906 -20.925781 13.671875 -21.40625 C 14.847656 -21.882812 16.082031 -22.125 17.375 -22.125 C 19.882812 -22.125 21.765625 -21.425781 23.015625 -20.03125 C 24.273438 -18.632812 24.90625 -16.628906 24.90625 -14.015625 L 24.90625 0 L 16.75 0 L 16.75 -13.03125 C 16.75 -13.957031 16.507812 -14.695312 16.03125 -15.25 C 15.5625 -15.8125 14.890625 -16.09375 14.015625 -16.09375 C 13.003906 -16.09375 12.179688 -15.765625 11.546875 -15.109375 C 10.921875 -14.460938 10.609375 -13.660156 10.609375 -12.703125 L 10.609375 0 L 2.453125 0 L 2.453125 -29.703125 L 10.609375 -29.703125 Z M 10.609375 -19.375 "/></g></g></g><g fill="#ffffff" fill-opacity="1"><g transform="translate(229.700257, 51.868131)"><g><path d="M 2.75 -24.171875 L 2.75 -29.703125 L 10.890625 -29.703125 L 10.890625 -24.171875 Z M 2.75 0 L 2.75 -21.625 L 10.890625 -21.625 L 10.890625 0 Z M 2.75 0 "/></g></g></g><g fill="#ffffff" fill-opacity="1"><g transform="translate(243.341811, 51.868131)"><g><path d="M 2.75 0 L 2.75 -29.703125 L 10.890625 -29.703125 L 10.890625 0 Z M 2.75 0 "/></g></g></g><g fill="#ffffff" fill-opacity="1"><g transform="translate(256.983365, 51.868131)"><g><path d="M 7.046875 -16.3125 L 4.265625 -16.3125 L 2.328125 -22.15625 L 2.328125 -28.1875 L 9.015625 -28.1875 L 9.015625 -22.15625 Z M 7.046875 -16.3125 "/></g></g></g><g fill="#ffffff" fill-opacity="1"><g transform="translate(268.371811, 51.868131)"><g><path d="M 12.734375 -22.125 C 15.628906 -22.125 18.082031 -21.554688 20.09375 -20.421875 C 22.101562 -19.285156 23.109375 -17.53125 23.109375 -15.15625 L 15.53125 -15.15625 C 15.53125 -15.945312 15.175781 -16.507812 14.46875 -16.84375 C 13.96875 -17.113281 13.351562 -17.25 12.625 -17.25 C 10.65625 -17.25 9.671875 -16.785156 9.671875 -15.859375 C 9.671875 -15.335938 10.007812 -14.96875 10.6875 -14.75 C 11.375 -14.53125 12.492188 -14.296875 14.046875 -14.046875 C 15.960938 -13.773438 17.5625 -13.453125 18.84375 -13.078125 C 20.125 -12.710938 21.242188 -12.054688 22.203125 -11.109375 C 23.160156 -10.171875 23.640625 -8.859375 23.640625 -7.171875 C 23.640625 -4.410156 22.609375 -2.441406 20.546875 -1.265625 C 18.484375 -0.0976562 15.785156 0.484375 12.453125 0.484375 C 10.546875 0.484375 8.742188 0.21875 7.046875 -0.3125 C 5.347656 -0.84375 3.96875 -1.664062 2.90625 -2.78125 C 1.84375 -3.90625 1.3125 -5.328125 1.3125 -7.046875 L 8.890625 -7.046875 L 8.890625 -6.875 C 8.921875 -5.945312 9.3125 -5.300781 10.0625 -4.9375 C 10.8125 -4.570312 11.609375 -4.390625 12.453125 -4.390625 C 14.722656 -4.390625 15.859375 -4.921875 15.859375 -5.984375 C 15.859375 -6.523438 15.5 -6.914062 14.78125 -7.15625 C 14.070312 -7.40625 12.914062 -7.671875 11.3125 -7.953125 C 9.375 -8.273438 7.78125 -8.628906 6.53125 -9.015625 C 5.289062 -9.398438 4.207031 -10.046875 3.28125 -10.953125 C 2.351562 -11.867188 1.890625 -13.148438 1.890625 -14.796875 C 1.890625 -17.441406 2.890625 -19.320312 4.890625 -20.4375 C 6.898438 -21.5625 9.515625 -22.125 12.734375 -22.125 Z M 12.734375 -22.125 "/></g></g></g><g fill="#ff793f" fill-opacity="1"><g transform="translate(157.846221, 83.248177)"><g><path d="M 1.21875 -14.015625 L 10.15625 -14.015625 L 10.15625 -11.6875 L 3.84375 -11.6875 L 3.84375 -8.328125 L 9.25 -8.328125 L 9.25 -6 L 3.84375 -6 L 3.84375 -2.328125 L 10.265625 -2.328125 L 10.265625 0 L 1.21875 0 Z M 1.21875 -14.015625 "/></g></g></g><g fill="#ff793f" fill-opacity="1"><g transform="translate(171.281817, 83.248177)"><g><path d="M 1.21875 -14.015625 L 3.53125 -14.015625 L 7.859375 -6.296875 C 7.953125 -6.140625 8.070312 -5.90625 8.21875 -5.59375 C 8.363281 -5.289062 8.457031 -5.085938 8.5 -4.984375 L 8.5625 -5.046875 L 8.53125 -6.203125 L 8.53125 -14.015625 L 10.859375 -14.015625 L 10.859375 0 L 8.53125 0 L 4.203125 -7.71875 C 4.097656 -7.9375 3.976562 -8.179688 3.84375 -8.453125 C 3.71875 -8.722656 3.628906 -8.914062 3.578125 -9.03125 L 3.484375 -8.96875 C 3.484375 -8.882812 3.488281 -8.722656 3.5 -8.484375 C 3.519531 -8.253906 3.53125 -8.023438 3.53125 -7.796875 L 3.53125 0 L 1.21875 0 Z M 1.21875 -14.015625 "/></g></g></g><g fill="#ff793f" fill-opacity="1"><g transform="translate(185.636181, 83.248177)"><g><path d="M 6.171875 -7.625 L 11.984375 -7.625 L 11.984375 0 L 10.296875 0 L 9.84375 -1.546875 C 9.394531 -0.960938 8.847656 -0.515625 8.203125 -0.203125 C 7.554688 0.0976562 6.859375 0.25 6.109375 0.25 C 4.347656 0.25 3.003906 -0.34375 2.078125 -1.53125 C 1.148438 -2.726562 0.6875 -4.550781 0.6875 -7 C 0.6875 -9.4375 1.195312 -11.253906 2.21875 -12.453125 C 3.238281 -13.648438 4.710938 -14.25 6.640625 -14.25 C 7.609375 -14.25 8.492188 -14.046875 9.296875 -13.640625 C 10.109375 -13.242188 10.757812 -12.65625 11.25 -11.875 C 11.738281 -11.101562 11.984375 -10.179688 11.984375 -9.109375 L 9.3125 -9.109375 C 9.3125 -10.015625 9.046875 -10.722656 8.515625 -11.234375 C 7.992188 -11.753906 7.34375 -12.015625 6.5625 -12.015625 C 5.5 -12.015625 4.703125 -11.625 4.171875 -10.84375 C 3.648438 -10.070312 3.390625 -8.960938 3.390625 -7.515625 L 3.390625 -6.5 C 3.390625 -5.039062 3.648438 -3.925781 4.171875 -3.15625 C 4.703125 -2.382812 5.503906 -2 6.578125 -2 C 7.378906 -2 8.035156 -2.304688 8.546875 -2.921875 C 9.054688 -3.546875 9.3125 -4.363281 9.3125 -5.375 L 6.171875 -5.375 Z M 6.171875 -7.625 "/></g></g></g><g fill="#ff793f" fill-opacity="1"><g transform="translate(200.92973, 83.248177)"><g><path d="M 1.21875 -14.015625 L 3.84375 -14.015625 L 3.84375 -2.453125 L 9.765625 -2.453125 L 9.765625 0 L 1.21875 0 Z M 1.21875 -14.015625 "/></g></g></g><g fill="#ff793f" fill-opacity="1"><g transform="translate(213.426141, 83.248177)"><g><path d="M 1.015625 -14.015625 L 3.640625 -14.015625 L 3.640625 0 L 1.015625 0 Z M 1.015625 -14.015625 "/></g></g></g><g fill="#ff793f" fill-opacity="1"><g transform="translate(220.348689, 83.248177)"><g><path d="M 5.453125 0.25 C 4.566406 0.25 3.753906 0.0820312 3.015625 -0.25 C 2.285156 -0.582031 1.703125 -1.078125 1.265625 -1.734375 C 0.828125 -2.390625 0.609375 -3.179688 0.609375 -4.109375 L 0.640625 -4.546875 L 3.34375 -4.546875 L 3.328125 -4.234375 C 3.328125 -3.546875 3.523438 -3 3.921875 -2.59375 C 4.316406 -2.195312 4.867188 -2 5.578125 -2 C 6.296875 -2 6.828125 -2.160156 7.171875 -2.484375 C 7.523438 -2.804688 7.703125 -3.195312 7.703125 -3.65625 C 7.703125 -4.113281 7.578125 -4.488281 7.328125 -4.78125 C 7.085938 -5.082031 6.785156 -5.3125 6.421875 -5.46875 C 6.054688 -5.632812 5.550781 -5.828125 4.90625 -6.046875 C 4.039062 -6.316406 3.34375 -6.585938 2.8125 -6.859375 C 2.28125 -7.128906 1.828125 -7.539062 1.453125 -8.09375 C 1.085938 -8.65625 0.90625 -9.398438 0.90625 -10.328125 C 0.90625 -11.171875 1.113281 -11.890625 1.53125 -12.484375 C 1.957031 -13.078125 2.519531 -13.519531 3.21875 -13.8125 C 3.925781 -14.101562 4.710938 -14.25 5.578125 -14.25 C 6.910156 -14.25 8 -13.90625 8.84375 -13.21875 C 9.695312 -12.53125 10.125 -11.5 10.125 -10.125 L 10.125 -9.890625 L 7.453125 -9.890625 L 7.453125 -10.0625 C 7.453125 -10.664062 7.28125 -11.140625 6.9375 -11.484375 C 6.601562 -11.835938 6.144531 -12.015625 5.5625 -12.015625 C 4.945312 -12.015625 4.460938 -11.875 4.109375 -11.59375 C 3.765625 -11.3125 3.59375 -10.953125 3.59375 -10.515625 C 3.59375 -10.140625 3.707031 -9.828125 3.9375 -9.578125 C 4.164062 -9.328125 4.453125 -9.128906 4.796875 -8.984375 C 5.148438 -8.835938 5.632812 -8.664062 6.25 -8.46875 C 7.132812 -8.1875 7.847656 -7.910156 8.390625 -7.640625 C 8.929688 -7.378906 9.398438 -6.96875 9.796875 -6.40625 C 10.191406 -5.851562 10.390625 -5.117188 10.390625 -4.203125 C 10.390625 -2.671875 9.953125 -1.546875 9.078125 -0.828125 C 8.203125 -0.109375 6.992188 0.25 5.453125 0.25 Z M 5.453125 0.25 "/></g></g></g><g fill="#ff793f" fill-opacity="1"><g transform="translate(233.784283, 83.248177)"><g><path d="M 1.21875 -14.015625 L 3.84375 -14.015625 L 3.84375 -8.328125 L 8.25 -8.328125 L 8.25 -14.015625 L 10.859375 -14.015625 L 10.859375 0 L 8.25 0 L 8.25 -6 L 3.84375 -6 L 3.84375 0 L 1.21875 0 Z M 1.21875 -14.015625 "/></g></g></g><g fill="#ff793f" fill-opacity="1"><g transform="translate(248.138644, 83.248177)"><g/></g></g><g fill="#ff793f" fill-opacity="1"><g transform="translate(255.061192, 83.248177)"><g><path d="M 6.265625 0.25 C 4.472656 0.25 3.09375 -0.351562 2.125 -1.5625 C 1.164062 -2.769531 0.6875 -4.582031 0.6875 -7 C 0.6875 -9.425781 1.164062 -11.238281 2.125 -12.4375 C 3.09375 -13.644531 4.472656 -14.25 6.265625 -14.25 C 7.804688 -14.25 9.050781 -13.789062 10 -12.875 C 10.945312 -11.96875 11.421875 -10.609375 11.421875 -8.796875 L 8.734375 -8.796875 C 8.734375 -9.847656 8.507812 -10.644531 8.0625 -11.1875 C 7.625 -11.738281 7.023438 -12.015625 6.265625 -12.015625 C 5.316406 -12.015625 4.597656 -11.617188 4.109375 -10.828125 C 3.628906 -10.046875 3.390625 -8.941406 3.390625 -7.515625 L 3.390625 -6.5 C 3.390625 -5.0625 3.632812 -3.953125 4.125 -3.171875 C 4.625 -2.390625 5.363281 -2 6.34375 -2 C 7.125 -2 7.738281 -2.265625 8.1875 -2.796875 C 8.632812 -3.335938 8.859375 -4.132812 8.859375 -5.1875 L 11.421875 -5.1875 C 11.421875 -3.414062 10.945312 -2.066406 10 -1.140625 C 9.0625 -0.210938 7.816406 0.25 6.265625 0.25 Z M 6.265625 0.25 "/></g></g></g><g fill="#ff793f" fill-opacity="1"><g transform="translate(269.415554, 83.248177)"><g><path d="M 1.21875 -14.015625 L 3.84375 -14.015625 L 3.84375 -2.453125 L 9.765625 -2.453125 L 9.765625 0 L 1.21875 0 Z M 1.21875 -14.015625 "/></g></g></g><g fill="#ff793f" fill-opacity="1"><g transform="translate(281.911962, 83.248177)"><g><path d="M 6.046875 0.25 C 4.515625 0.25 3.332031 -0.144531 2.5 -0.9375 C 1.664062 -1.738281 1.25 -2.890625 1.25 -4.390625 L 1.25 -14.015625 L 3.859375 -14.015625 L 3.859375 -4.46875 C 3.859375 -3.664062 4.046875 -3.050781 4.421875 -2.625 C 4.804688 -2.207031 5.347656 -2 6.046875 -2 C 6.742188 -2 7.285156 -2.207031 7.671875 -2.625 C 8.054688 -3.050781 8.25 -3.664062 8.25 -4.46875 L 8.25 -14.015625 L 10.859375 -14.015625 L 10.859375 -4.390625 C 10.859375 -2.890625 10.4375 -1.738281 9.59375 -0.9375 C 8.75 -0.144531 7.566406 0.25 6.046875 0.25 Z M 6.046875 0.25 "/></g></g></g><g fill="#ff793f" fill-opacity="1"><g transform="translate(296.266324, 83.248177)"><g><path d="M 1.21875 -14.015625 L 7.25 -14.015625 C 7.988281 -14.015625 8.644531 -13.863281 9.21875 -13.5625 C 9.800781 -13.269531 10.253906 -12.863281 10.578125 -12.34375 C 10.898438 -11.820312 11.0625 -11.21875 11.0625 -10.53125 C 11.0625 -9.757812 10.859375 -9.085938 10.453125 -8.515625 C 10.054688 -7.953125 9.546875 -7.566406 8.921875 -7.359375 L 8.921875 -7.265625 C 9.640625 -7.046875 10.226562 -6.625 10.6875 -6 C 11.15625 -5.375 11.390625 -4.625 11.390625 -3.75 C 11.390625 -2.988281 11.203125 -2.328125 10.828125 -1.765625 C 10.453125 -1.203125 9.953125 -0.765625 9.328125 -0.453125 C 8.703125 -0.148438 8.007812 0 7.25 0 L 1.21875 0 Z M 6.53125 -8.328125 C 7.132812 -8.328125 7.59375 -8.488281 7.90625 -8.8125 C 8.226562 -9.144531 8.390625 -9.5625 8.390625 -10.0625 C 8.390625 -10.582031 8.234375 -10.984375 7.921875 -11.265625 C 7.609375 -11.546875 7.1875 -11.6875 6.65625 -11.6875 L 3.84375 -11.6875 L 3.84375 -8.328125 Z M 6.828125 -2.328125 C 7.378906 -2.328125 7.832031 -2.476562 8.1875 -2.78125 C 8.539062 -3.09375 8.71875 -3.523438 8.71875 -4.078125 C 8.71875 -4.648438 8.539062 -5.117188 8.1875 -5.484375 C 7.84375 -5.847656 7.347656 -6.03125 6.703125 -6.03125 L 3.84375 -6.03125 L 3.84375 -2.328125 Z M 6.828125 -2.328125 "/></g></g></g></svg>